<svg class="main-svg" xmlns="http://www.w3.org/2000/svg" xmlns:xlink="http://www.w3.org/1999/xlink" width="2200" height="1000" style="" viewBox="0 0 1100 500"><rect x="0" y="0" width="1100" height="500" style="fill: rgb(255, 255, 255); fill-opacity: 1;"/><defs id="defs-8d6680"><g class="clips"><clipPath id="clip8d6680xyplot" class="plotclip"><rect width="1017" height="385"/></clipPath><clipPath class="axesclip" id="clip8d6680x"><rect x="68" y="0" width="1017" height="500"/></clipPath><clipPath class="axesclip" id="clip8d6680y"><rect x="0" y="50" width="1100" height="385"/></clipPath><clipPath class="axesclip" id="clip8d6680xy"><rect x="68" y="50" width="1017" height="385"/></clipPath></g><g class="gradients"/><g class="patterns"/></defs><g class="bglayer"/><g class="layer-below"><g class="imagelayer"/><g class="shapelayer"/></g><g class="cartesianlayer"><g class="subplot xy"><g class="layer-subplot"><g class="shapelayer"/><g class="imagelayer"/></g><g class="minor-gridlayer"><g class="x"/><g class="y"/></g><g class="gridlayer"><g class="x"><path class="xgrid crisp" transform="translate(160.55,0)" d="M0,50v385" style="stroke: rgb(0, 0, 0); stroke-opacity: 0.05; stroke-width: 1px;"/><path class="xgrid crisp" transform="translate(263.38,0)" d="M0,50v385" style="stroke: rgb(0, 0, 0); stroke-opacity: 0.05; stroke-width: 1px;"/><path class="xgrid crisp" transform="translate(366.21,0)" d="M0,50v385" style="stroke: rgb(0, 0, 0); stroke-opacity: 0.05; stroke-width: 1px;"/><path class="xgrid crisp" transform="translate(469.04,0)" d="M0,50v385" style="stroke: rgb(0, 0, 0); stroke-opacity: 0.05; stroke-width: 1px;"/><path class="xgrid crisp" transform="translate(571.87,0)" d="M0,50v385" style="stroke: rgb(0, 0, 0); stroke-opacity: 0.05; stroke-width: 1px;"/><path class="xgrid crisp" transform="translate(674.7,0)" d="M0,50v385" style="stroke: rgb(0, 0, 0); stroke-opacity: 0.05; stroke-width: 1px;"/><path class="xgrid crisp" transform="translate(777.53,0)" d="M0,50v385" style="stroke: rgb(0, 0, 0); stroke-opacity: 0.05; stroke-width: 1px;"/><path class="xgrid crisp" transform="translate(880.37,0)" d="M0,50v385" style="stroke: rgb(0, 0, 0); stroke-opacity: 0.05; stroke-width: 1px;"/><path class="xgrid crisp" transform="translate(983.2,0)" d="M0,50v385" style="stroke: rgb(0, 0, 0); stroke-opacity: 0.05; stroke-width: 1px;"/></g><g class="y"><path class="ygrid crisp" transform="translate(0,383.56)" d="M68,0h1017" style="stroke: rgb(0, 0, 0); stroke-opacity: 0.05; stroke-width: 1px;"/><path class="ygrid crisp" transform="translate(0,332.12)" d="M68,0h1017" style="stroke: rgb(0, 0, 0); stroke-opacity: 0.05; stroke-width: 1px;"/><path class="ygrid crisp" transform="translate(0,280.68)" d="M68,0h1017" style="stroke: rgb(0, 0, 0); stroke-opacity: 0.05; stroke-width: 1px;"/><path class="ygrid crisp" transform="translate(0,229.23)" d="M68,0h1017" style="stroke: rgb(0, 0, 0); stroke-opacity: 0.05; stroke-width: 1px;"/><path class="ygrid crisp" transform="translate(0,177.79000000000002)" d="M68,0h1017" style="stroke: rgb(0, 0, 0); stroke-opacity: 0.05; stroke-width: 1px;"/><path class="ygrid crisp" transform="translate(0,126.35)" d="M68,0h1017" style="stroke: rgb(0, 0, 0); stroke-opacity: 0.05; stroke-width: 1px;"/><path class="ygrid crisp" transform="translate(0,74.91)" d="M68,0h1017" style="stroke: rgb(0, 0, 0); stroke-opacity: 0.05; stroke-width: 1px;"/></g></g><g class="zerolinelayer"><path class="yzl zl crisp" transform="translate(0,435)" d="M68,0h1017" style="stroke: rgb(0, 0, 0); stroke-opacity: 0.05; stroke-width: 2px;"/></g><g class="layer-between"><g class="shapelayer"/><g class="imagelayer"/></g><path class="xlines-below"/><path class="ylines-below"/><g class="overlines-below"/><g class="xaxislayer-below"/><g class="yaxislayer-below"/><g class="overaxes-below"/><g class="overplot"><g class="xy" transform="translate(68,50)" clip-path="url(#clip8d6680xyplot)"><g class="scatterlayer mlayer"><g class="trace scatter tracec6f68b" style="stroke-miterlimit: 2; opacity: 1;"><g class="fills"/><g class="errorbars"/><g class="lines"><path class="js-line" d="M0,384.23L5.14,383.71L6.17,384.74L14.4,384.49L15.42,383.97L17.48,384.49L19.54,383.97L20.57,383.97L22.62,384.74L23.65,384.23L25.71,384.23L30.85,383.97L31.88,383.71L33.93,384.49L35.99,383.97L37.02,383.97L39.08,382.69L40.1,383.97L43.19,384.74L48.33,384.49L49.36,384.74L53.47,383.97L54.5,384.23L56.56,384.74L57.59,383.71L59.64,382.94L61.7,384.49L65.81,384.23L66.84,384.74L70.95,383.97L71.98,384.49L74.04,384.49L75.07,383.71L77.12,384.74L79.18,383.97L80.21,382.69L82.26,384.49L83.29,383.2L85.35,383.97L87.41,384.49L88.43,382.17L91.52,384.74L93.58,384.49L96.66,384.74L98.72,384.23L99.75,383.97L101.8,384.49L103.86,383.71L104.89,384.23L107.97,384.49L110.03,383.71L113.11,383.97L115.17,384.74L120.31,384.23L121.34,384.23L123.4,383.71L124.43,384.23L130.6,383.71L133.68,384.49L134.71,383.97L136.77,383.97L138.82,382.17L139.85,383.71L142.94,384.23L144.99,383.71L150.13,384.74L151.16,383.71L153.22,384.23L155.28,382.94L158.36,384.74L159.39,383.2L161.44,384.74L163.5,384.74L164.53,383.97L166.59,383.46L167.61,384.23L169.67,383.2L176.87,383.97L177.9,383.71L179.95,384.23L180.98,383.71L185.1,382.43L186.12,383.46L188.18,384.23L189.21,383.71L191.27,383.97L193.32,383.2L194.35,382.94L196.41,383.71L197.44,384.74L199.49,383.71L204.63,383.46L205.66,382.94L207.72,383.71L209.78,382.69L210.8,383.97L212.86,382.94L213.89,383.71L215.95,383.97L219.03,382.69L221.09,384.49L222.12,383.46L224.17,382.69L226.23,383.2L227.26,384.23L232.4,382.43L234.46,383.71L237.54,383.97L238.57,383.2L240.62,382.94L242.68,384.74L243.71,384.74L245.77,383.46L248.85,384.23L250.91,383.71L251.94,384.49L253.99,384.23L259.13,381.91L260.16,383.97L262.22,382.43L263.25,384.23L265.3,384.23L267.36,383.46L268.39,381.66L270.45,383.46L271.47,384.49L273.53,382.69L276.62,384.49L278.67,384.23L279.7,384.49L281.76,383.46L283.81,384.23L284.84,383.71L286.9,382.69L287.93,383.97L292.04,383.2L293.07,384.23L296.15,384.49L298.21,383.2L300.27,383.97L301.3,383.46L303.35,382.69L304.38,384.49L306.44,384.23L308.49,384.74L309.52,383.71L311.58,383.97L314.66,384.49L316.72,383.71L319.8,384.23L320.83,383.2L322.89,382.94L324.95,384.23L325.97,383.97L328.03,382.43L329.06,383.2L331.12,383.46L334.2,383.97L336.26,383.46L337.29,383.97L339.34,382.94L342.43,383.46L344.48,384.49L347.57,383.46L349.63,384.49L350.65,383.71L352.71,384.23L355.8,382.94L357.85,383.2L358.88,384.23L360.94,383.46L364.02,383.2L366.08,383.2L367.11,383.71L369.16,383.2L372.25,383.97L374.31,383.46L378.42,383.97L380.48,383.97L382.53,383.97L383.56,382.94L385.62,384.49L386.65,383.46L390.76,383.71L391.79,382.43L394.87,383.97L396.93,383.46L398.98,382.69L400.01,383.97L405.15,382.69L407.21,383.97L410.3,384.23L412.35,383.46L416.47,383.97L417.49,383.2L419.55,383.97L420.58,383.46L422.64,383.97L424.69,382.94L425.72,384.23L427.78,383.71L428.81,383.2L430.86,383.97L432.92,384.23L433.95,383.2L437.03,382.94L439.09,383.2L442.17,383.2L444.23,382.43L445.26,382.94L447.32,382.69L449.37,384.23L450.4,383.2L452.46,383.2L453.49,383.97L455.54,382.69L457.6,382.69L458.63,383.97L460.68,383.46L466.85,384.23L468.91,383.71L469.94,383.97L471.99,383.2L474.05,383.97L475.08,382.94L477.14,383.97L478.16,382.69L480.22,383.46L482.28,383.2L485.36,383.97L486.39,382.17L488.45,384.74L490.5,383.71L491.53,384.23L493.59,382.94L496.67,384.49L498.73,383.46L503.87,384.23L504.9,383.71L510.04,384.74L512.1,382.43L513.13,384.49L515.18,384.23L516.21,384.23L518.27,383.2L520.33,383.46L521.35,384.74L524.44,383.46L526.5,383.71L531.64,384.23L532.67,383.46L534.72,383.71L536.78,383.2L537.81,384.74L539.86,383.97L540.89,383.71L542.95,384.49L546.03,382.94L548.09,383.97L549.12,383.71L551.17,384.74L554.26,383.2L556.32,383.97L557.34,383.46L559.4,384.49L563.51,383.71L565.57,384.49L568.66,382.94L571.74,383.71L574.83,383.97L576.88,383.2L578.94,383.97L581,383.46L582.02,383.46L584.08,384.23L585.11,384.74L587.17,383.97L589.22,384.74L590.25,384.23L593.34,383.71L595.39,383.71L600.53,383.71L601.56,384.23L603.62,382.94L605.68,383.71L609.79,383.46L611.85,384.74L614.93,384.49L616.99,383.46L620.07,384.23L622.13,383.71L625.21,384.74L627.27,383.71L629.33,382.94L631.38,383.97L632.41,384.23L634.47,383.71L637.55,383.97L640.64,384.23L655.03,384.23L657.09,384.74L658.12,383.97L660.18,383.71L661.2,383.71L663.26,384.49L665.32,383.97L667.37,384.23L672.52,384.74L674.57,384.23L678.69,383.46L680.74,384.49L686.91,383.97L688.97,384.74L691.03,383.97L692.05,382.69L694.11,384.74L695.14,383.71L697.2,384.49L699.25,383.97L700.28,382.94L702.34,383.97L703.37,383.71L705.42,384.23L708.51,384.49L711.59,383.2L712.62,384.23L714.68,384.23L717.76,384.49L719.82,382.94L720.85,383.97L722.9,384.49L725.99,383.97L728.04,383.97L729.07,383.46L731.13,384.23L736.27,383.46L737.3,384.23L742.44,384.74L744.5,383.97L745.53,384.74L747.58,384.49L753.75,383.97L756.84,384.49L760.95,383.97L763.01,383.71L764.04,384.74L766.09,383.97L769.18,384.23L771.23,384.49L772.26,383.2L774.32,383.97L778.43,383.97L780.49,384.74L781.52,383.46L783.57,382.69L785.63,384.49L787.69,384.49L799,384.49L800.03,383.71L804.14,384.49L805.17,383.97L807.22,383.71L808.25,384.74L810.31,382.94L812.37,384.23L813.39,383.97L815.45,384.49L817.51,384.23L820.59,384.74L822.65,383.97L823.68,384.74L826.76,383.97L829.85,384.49L842.19,384.23L844.24,383.97L849.39,384.49L850.41,383.97L852.47,384.74L854.53,384.23L855.56,384.49L857.61,383.46L858.64,384.23L860.7,383.97L862.75,384.49L863.78,383.97L868.92,384.74L870.98,383.97L872.01,384.49L874.06,383.71L875.09,384.74L878.18,384.49L880.23,383.97L881.26,384.49L883.32,383.71L884.35,384.23L894.63,384.49L896.69,383.46L897.72,383.97L900.8,383.71L901.83,384.74L903.89,384.23L906.97,384.74L909.03,383.97L910.06,384.23L912.11,383.71L915.2,384.23L917.25,383.97L920.34,384.74L922.4,384.23L923.42,384.49L925.48,384.23L926.51,384.49L928.57,384.23L936.79,384.23L938.85,384.49L943.99,384.74L947.07,384.49L950.16,383.71L952.22,384.49L953.24,384.74L955.3,384.23L961.47,384.49L963.53,383.97L966.61,384.49L968.67,384.23L969.7,384.74L971.75,384.49L973.81,384.74L974.84,383.97L985.12,384.49L987.18,382.94L988.21,383.71L990.26,383.97L993.35,384.49L995.41,384.23L1003.63,384.74L1005.69,383.71L1008.77,384.74L1010.83,384.23L1014.94,383.97L1017,19.25" style="vector-effect: none; fill: none; stroke: rgb(124, 181, 236); stroke-opacity: 1; stroke-width: 2px; opacity: 1;"/></g><g class="points"/><g class="text"/></g></g></g></g><path class="xlines-above crisp" d="M0,0" style="fill: none;"/><path class="ylines-above crisp" d="M0,0" style="fill: none;"/><g class="overlines-above"/><g class="xaxislayer-above"><g class="xtick"><text text-anchor="middle" x="0" y="451" transform="translate(160.55,0)" style="font-family: 'Lucida Grande', 'Open Sans', verdana, arial, sans-serif; font-size: 10px; fill: rgb(0, 0, 0); fill-opacity: 1; white-space: pre; opacity: 1;">100</text></g><g class="xtick"><text text-anchor="middle" x="0" y="451" style="font-family: 'Lucida Grande', 'Open Sans', verdana, arial, sans-serif; font-size: 10px; fill: rgb(0, 0, 0); fill-opacity: 1; white-space: pre; opacity: 1;" transform="translate(263.38,0)">200</text></g><g class="xtick"><text text-anchor="middle" x="0" y="451" style="font-family: 'Lucida Grande', 'Open Sans', verdana, arial, sans-serif; font-size: 10px; fill: rgb(0, 0, 0); fill-opacity: 1; white-space: pre; opacity: 1;" transform="translate(366.21,0)">300</text></g><g class="xtick"><text text-anchor="middle" x="0" y="451" style="font-family: 'Lucida Grande', 'Open Sans', verdana, arial, sans-serif; font-size: 10px; fill: rgb(0, 0, 0); fill-opacity: 1; white-space: pre; opacity: 1;" transform="translate(469.04,0)">400</text></g><g class="xtick"><text text-anchor="middle" x="0" y="451" style="font-family: 'Lucida Grande', 'Open Sans', verdana, arial, sans-serif; font-size: 10px; fill: rgb(0, 0, 0); fill-opacity: 1; white-space: pre; opacity: 1;" transform="translate(571.87,0)">500</text></g><g class="xtick"><text text-anchor="middle" x="0" y="451" style="font-family: 'Lucida Grande', 'Open Sans', verdana, arial, sans-serif; font-size: 10px; fill: rgb(0, 0, 0); fill-opacity: 1; white-space: pre; opacity: 1;" transform="translate(674.7,0)">600</text></g><g class="xtick"><text text-anchor="middle" x="0" y="451" style="font-family: 'Lucida Grande', 'Open Sans', verdana, arial, sans-serif; font-size: 10px; fill: rgb(0, 0, 0); fill-opacity: 1; white-space: pre; opacity: 1;" transform="translate(777.53,0)">700</text></g><g class="xtick"><text text-anchor="middle" x="0" y="451" style="font-family: 'Lucida Grande', 'Open Sans', verdana, arial, sans-serif; font-size: 10px; fill: rgb(0, 0, 0); fill-opacity: 1; white-space: pre; opacity: 1;" transform="translate(880.37,0)">800</text></g><g class="xtick"><text text-anchor="middle" x="0" y="451" style="font-family: 'Lucida Grande', 'Open Sans', verdana, arial, sans-serif; font-size: 10px; fill: rgb(0, 0, 0); fill-opacity: 1; white-space: pre; opacity: 1;" transform="translate(983.2,0)">900</text></g></g><g class="yaxislayer-above"><g class="ytick"><text text-anchor="end" x="62" y="3.5" transform="translate(0,435)" style="font-family: 'Lucida Grande', 'Open Sans', verdana, arial, sans-serif; font-size: 10px; fill: rgb(0, 0, 0); fill-opacity: 1; white-space: pre; opacity: 1;">0</text></g><g class="ytick"><text text-anchor="end" x="62" y="3.5" style="font-family: 'Lucida Grande', 'Open Sans', verdana, arial, sans-serif; font-size: 10px; fill: rgb(0, 0, 0); fill-opacity: 1; white-space: pre; opacity: 1;" transform="translate(0,383.56)">200</text></g><g class="ytick"><text text-anchor="end" x="62" y="3.5" style="font-family: 'Lucida Grande', 'Open Sans', verdana, arial, sans-serif; font-size: 10px; fill: rgb(0, 0, 0); fill-opacity: 1; white-space: pre; opacity: 1;" transform="translate(0,332.12)">400</text></g><g class="ytick"><text text-anchor="end" x="62" y="3.5" style="font-family: 'Lucida Grande', 'Open Sans', verdana, arial, sans-serif; font-size: 10px; fill: rgb(0, 0, 0); fill-opacity: 1; white-space: pre; opacity: 1;" transform="translate(0,280.68)">600</text></g><g class="ytick"><text text-anchor="end" x="62" y="3.5" style="font-family: 'Lucida Grande', 'Open Sans', verdana, arial, sans-serif; font-size: 10px; fill: rgb(0, 0, 0); fill-opacity: 1; white-space: pre; opacity: 1;" transform="translate(0,229.23)">800</text></g><g class="ytick"><text text-anchor="end" x="62" y="3.5" style="font-family: 'Lucida Grande', 'Open Sans', verdana, arial, sans-serif; font-size: 10px; fill: rgb(0, 0, 0); fill-opacity: 1; white-space: pre; opacity: 1;" transform="translate(0,177.79000000000002)">1000</text></g><g class="ytick"><text text-anchor="end" x="62" y="3.5" style="font-family: 'Lucida Grande', 'Open Sans', verdana, arial, sans-serif; font-size: 10px; fill: rgb(0, 0, 0); fill-opacity: 1; white-space: pre; opacity: 1;" transform="translate(0,126.35)">1200</text></g><g class="ytick"><text text-anchor="end" x="62" y="3.5" style="font-family: 'Lucida Grande', 'Open Sans', verdana, arial, sans-serif; font-size: 10px; fill: rgb(0, 0, 0); fill-opacity: 1; white-space: pre; opacity: 1;" transform="translate(0,74.91)">1400</text></g></g><g class="overaxes-above"/></g></g><g class="polarlayer"/><g class="smithlayer"/><g class="ternarylayer"/><g class="geolayer"/><g class="funnelarealayer"/><g class="pielayer"/><g class="iciclelayer"/><g class="treemaplayer"/><g class="sunburstlayer"/><g class="glimages"/><defs id="topdefs-8d6680"><g class="clips"/></defs><g class="layer-above"><g class="imagelayer"/><g class="shapelayer"/></g><g class="infolayer"><g class="g-gtitle"><text class="gtitle" x="550" y="25" text-anchor="middle" dy="0em" style="opacity: 1; font-family: 'Lucida Grande', 'Open Sans', verdana, arial, sans-serif; font-size: 20px; fill: rgb(42, 63, 95); fill-opacity: 1; white-space: pre;"><tspan class="line" dy="0em" x="550" y="25">Bcftools Stats: Variant Quality Count</tspan><tspan class="line" dy="1.3em" x="550" y="25">​<tspan style="font-size:70%" dy="-0.6em">Count Indels</tspan><tspan dy="0.42em">​</tspan></tspan></text></g><g class="g-xtitle"><text class="xtitle" x="576.5" y="472.3" text-anchor="middle" style="opacity: 0.3; font-family: 'Lucida Grande', 'Open Sans', verdana, arial, sans-serif; font-size: 14px; fill: rgb(0, 0, 0); fill-opacity: 1; white-space: pre;">Quality</text></g><g class="g-ytitle"><text class="ytitle" transform="rotate(-90,22.146875,242.5)" x="22.146875" y="242.5" text-anchor="middle" style="opacity: 0.3; font-family: 'Lucida Grande', 'Open Sans', verdana, arial, sans-serif; font-size: 14px; fill: rgb(0, 0, 0); fill-opacity: 1; white-space: pre;">Count</text></g></g></svg>